<svg xmlns="http://www.w3.org/2000/svg" width="240" height="196.628" viewBox="0 0 240 196.628">
  <g id="Group_3" data-name="Group 3" transform="translate(-129.523 -290.661)">
    <g id="Group_1" data-name="Group 1" transform="translate(129.523 290.661)">
      <path id="Path_1" data-name="Path 1" d="M221.086,459.746c-1.6-1.837-4.3-1.992-6.366-4.186,3.024.926,5.53,1.63,7.991,2.472,1.528.522,3.081.235,3.79-.933.992-1.635-.786-2.636-1.825-3.284-3.008-1.874-5.731-4.132-9.538-4.73-6.108-.958-11.582-3.847-16.736-7.353,5.254,1.779,10.31,4.156,15.772,5.247l2.865.738c2.559,1.513,5.514,1.241,8.277,1.8,2.4.489,5.6.559,6.454-1.872.933-2.645-1.723-4.4-3.979-5.662-.086-.048-.228,0-.344.006l-1.356-.649a12.467,12.467,0,0,0-4.2-5.346,69.422,69.422,0,0,1-14.408-15.39c-1.3-1.858-2.616-2.426-4.652-1.78-3.475,1.1-7.515,2.087-8.043,6.286-.519,4.124,3.241,5.872,6.237,7.683a68.651,68.651,0,0,0,10.766,4.784c-5.058.7-8.651-1.393-12.429-2.663-7.3-3.733-14.714-7.318-19.682-14.417.242,2.283,1.537,3.842,2.85,5.455,2.982,3.665,7.447,5.094,11.094,7.746-8.855-2.132-14.9-7.836-19.347-15.573-.439-.765-.762-1.6-1.543-3.258.247,5.032,2.478,8.134,4.562,11.389a35.488,35.488,0,0,1-16.232-17.785c2.431,1.162,3.292,3.148,5.108,3.9,1.238.514,2.435,1.095,3.613.194,1.228-.938.952-2.35.6-3.6a18,18,0,0,0-5.88-9.019c-1.959-1.638-3.323-3.276-3.227-6.125.06-1.771-.868-3.575-1.5-5.92-.864,3.568.762,6.915-1.427,9.795a32.884,32.884,0,0,0-1.6-15.317c-.3,4.314,1.231,7.828,0,11.453-1.277,3.761-3.063,4.937-6.783,3.715a12.151,12.151,0,0,1-5.48-3.663c-4.462-5.174-6.833-11.346-7.968-18.107,1.7,3.419,3.367,6.857,5.115,10.253a16.1,16.1,0,0,0,5.9,6.847c3.32,1.966,5.757.758,6.141-3.064a22.538,22.538,0,0,0-.273-5.733c-.24.994-.472,1.991-.721,2.983-.446,1.77-.27,4.017-2.688,4.463-2.521.465-3.936-1.27-5.325-2.916,4.682,2.331,7.223.789,7.591-4.986.315-4.926-1.207-9.532-3.04-14.021-1.585-3.881-3.768-7.453-5.71-11.162,4.365,4.294,6.71,9.839,9.374,15.159-2.838-13.54-12.493-21.713-23.353-29.451,1.924-.352,2.829.613,3.824,1.218,12.119,7.364,20.207,17.959,24.686,31.472a123.614,123.614,0,0,0,8.5,20.495c1.244-.684.013-2.2,1.375-3.075,1.475,5.251,3.173,10.328,6.236,14.8,2.848,4.158,6.248,7.6,10.933,9.627,1.478.638,3.3,1.231,4.169-.05,1.091-1.61-.751-2.646-1.87-3.642-5.26-4.682-10.073-13.457-10.276-19.055,5.231,7.461,8.782,16.373,19.479,18.383l-2.821-2.153c3.052.14,5.4,2.069,8.732,1.045-3.176-5.2-5.317-10.843-8.311-16.018-.872-1.507-3.211-2.145-4.914-3.2a1.668,1.668,0,0,1,1.721-.117c2.453,1.009,2.4-.109,1.565-1.891a1.322,1.322,0,0,1-.113-.334c-.937-5.472-3.7-8.386-9.322-10.4-12.821-4.6-20.59-14.9-25.735-27.333-.112-.272.051-.66.116-1.288,4.3,6.988,8.14,14,14.536,18.985,1.418,2.894,6.545,5.982,9.371,5.589,2.844-.4,3.119-2.815,3.5-5.208.991,1.317.937,2.969,2.515,3.683.359-2.537-.443-4.827-1.017-7-.639-2.422.335-2.866,2.183-3.14a26.534,26.534,0,0,0,9.276-2.789c.939-.527,2.493-.716,2.254-2.3-.187-1.237-1.26-1.894-2.317-2.468-4.069-2.208-9.589,0-11.952,4.72a14.117,14.117,0,0,0-1.153,6.883c.006.292-.028,1.09-.654.348a4.561,4.561,0,0,1-.432-1.085c-.644,5.78-1.919,7.219-5.752,6.267-1.711-.425-3.632-.923-4.547-2.842,2.552.252,5.442,1.972,7.448-.819,2.175-3.03,1.029-6.278-.2-9.409-1.057-2.685-3.033-4.72-4.88-7.253,2.74.351,4.947,2.2,8.285,1.662-16.173-7.725-23.843-20.914-26.489-37.62,4.455,12.768,10.739,24.1,23.548,30.417l-3.363-4.859c2.941,1.728,4.956,4.433,7.737,6.249A25.13,25.13,0,0,0,192.223,354c1.7.488,3.424.841,4.579-.487,1.3-1.5.481-3.343-.3-4.957a10.146,10.146,0,0,0-.983-1.339c-.434,1.738,1.54,3.722-.415,4.84-1.859,1.063-3.935.361-5.717-.487a26.291,26.291,0,0,1-9.673-7.564c10.434,4.12,11.183,3.847,11.425-4.533,5.975,5.418,9.188,11.968,11.312,19.3a8.805,8.805,0,0,0,3.592-6.072c.541-3.19.484-6.471,3.824-8.265,2.626.608,4.922-.425,7.819-1.458a25.626,25.626,0,0,1-11.141-7.06c.072,3.629,2.72,5.716,3.405,8.6-2.9-2.511-5.232-5.566-5.992-9.3-1.6-7.861-7.026-12.738-12.545-17.635-.349-.311-.765-.545-1.566-1.108,3.713.31,7.415,2.527,10.48,6.216,2.247,2.7,4.382,5.512,6.431,8.375,3.263,4.558,7.9,6.442,13.163,7,3.955.418,5.459-1.946,4.219-5.736-1.42-4.336-5.718-5.5-8.45-8.363a21.027,21.027,0,0,0-1.907-1.487c5.521.914,8.759,4.066,11.708,7.555,3.493,4.134,5.7,4.736,10.552,2.781,2.8-1.127,5.6-1.512,7.9,1.171-3.4-.98-6.915-1.252-9.333,1.712-2.111,2.588-3.639,1.6-5.533.144-.884-.676-1.353-1.941-2.685-2.036-.917,5.517.622,7.429,5.864,7.19,4.073-.185,8.139-.608,12.213-.708,2.622-.065,2.13-1.039,1.389-2.819-.42-1.008-2.855-1.069-1.408-2.914.6.075,1.212.477,1.811-.021-2.306-2.339.142-6.165-2.564-8.379l.258-.218c2.493-.612,4.275-.452,4.166,2.961a10.079,10.079,0,0,0,1.6,5.259,25.483,25.483,0,0,0,.919-5.265c-.106-3.407,1.666-3.577,4.163-2.956l.262.223c-2.858,2.084.053,5.949-3.033,8.343h3c.029,1.276-1.287,1.6-1.74,2.527-.4.815-1.361,1.51-.951,2.538.472,1.182,1.626.595,2.47.658,4.075.305,8.154.591,12.236.772,4.767.211,6.591-2.458,4.966-7.352-.468.421-.914.777-1.308,1.184-2.232,2.309-4.167,3.717-7.119.464-2.246-2.474-5.53-2.836-8.625-.832,1.8-3.525,4.778-2.733,7.46-1.779,5.614,2,7.077,1.684,11.1-2.961,2.86-3.3,6.009-6.236,11.326-7.285-2.346,1.966-3.917,3.833-5.914,4.816-2.5,1.232-3.546,3.269-4.39,5.594-1.234,3.4.473,5.619,4.07,5.22,6.216-.69,11.3-3.263,14.8-8.818,3.6-5.711,7.932-10.736,14.841-12.756-1.607,1.48-3.188,2.988-4.828,4.429-1.609,1.413-2.337,3.453-4.273,4.809-2.6,1.822-3.186,5.36-4,8.409a21.391,21.391,0,0,1-6.548,10.616c.761-2.927,3.511-5.043,3.528-8.824a24.851,24.851,0,0,1-11,7.03,22.457,22.457,0,0,0,7.565,1.7,6.273,6.273,0,0,1,3.974,6.073,12.331,12.331,0,0,0,3.489,7.833,41.016,41.016,0,0,1,11.146-19.206c.754.952-.094,1.629-.149,2.389-.267,3.642,2.351,5.817,5.819,4.654,2.065-.693,4.023-1.712,6.03-2.585a25.181,25.181,0,0,1-10.425,7.934c-1.64.736-3.5,1.315-5.009.274-1.787-1.234-.429-3.2-.31-4.874a2,2,0,0,0-1.18,1.308c-.628,1.6-1.9,3.289-.527,4.9,1.275,1.5,3.041,1.082,4.858.63a18.122,18.122,0,0,0,6.528-3.2c2.6-1.948,5-4.18,7.479-6.29-.264,2.336-2.6,3.248-3.535,5.189,8.11-2.1,14.628-10.234,23.663-29.453.848,11.162-9.438,25.926-25.445,36.262,3,.4,5.2-1.326,8.043-1.845-3.344,3.989-6.547,7.7-6.332,13.1.179,4.486,2.45,5.944,6.683,4.741,6.378-1.811,9.024-7.427,12.671-12.017,1.587-2,2.751-4.339,4.3-6.423-.4,3.533-2.327,6.424-4.1,9.282-5.775,9.3-13.622,16.09-24.19,19.217a4.768,4.768,0,0,0-3.8,3.951c-.583,2.557-1.6,5.014-2.409,7.467,1.34.667,2.214-.811,3.8.239-5.241,1.115-6.183,5.51-7.961,9.314-1.535,3.282-3.314,6.448-5.029,9.752,2.81.961,5.049-.8,7.539-1.125.184,1.325-1.5.952-1.637,2.149a19.135,19.135,0,0,0,11.384-7.059c2.7-3.5,4.963-7.346,7.628-10.916-1.189,7.193-4.843,13.04-9.756,18.2-.322.338-.755.566-1.092.891-.923.889-2.278,1.875-1.394,3.233.785,1.206,2.42.81,3.569.359a24.5,24.5,0,0,0,11.395-9.617,36.474,36.474,0,0,0,5.806-13.5,1.8,1.8,0,0,1,.949-1.411c.9.807.082,2.057.878,3.131a106.339,106.339,0,0,0,8.042-19.1c4.466-13.994,12.423-25.277,25.008-32.954a7.6,7.6,0,0,1,4.418-1.665c-11.087,8.042-20.856,16.177-23.642,29.72,2.6-5.343,5.108-10.773,9.109-15.437.806,1.086-.148,1.541-.5,2.1-3.732,5.9-6.641,12.148-7.787,19.124a13.6,13.6,0,0,0,.231,6.3c1.46,4.816,2.843,5.364,6.846,2.478-.938,2.362-2.728,3.82-4.663,3.369-4.1-.955-2.332-5.092-4.057-7.878,0,2.288-.157,4.236.033,6.148.38,3.822,2.82,5.026,6.143,3.067,2.6-1.532,4.219-3.985,5.758-6.527,2.067-3.415,3.45-7.165,5.45-10.594-1.97,8.07-4.184,16.083-11.729,20.92-4.636,2.971-7.676,1.484-8.95-3.865a13.731,13.731,0,0,1-.173-4.94c.2-1.581.886-3.111.208-5.127-1.447,5.1-2.31,9.878-1.3,14.908-2.077-2.875-.828-6.153-1.314-9.452a3.845,3.845,0,0,0-.483.876c-.99,5.437-2.53,10.453-7.306,14.011-1.781,1.327-2.558,3.906-3.114,6.211-.269,1.115-.446,2.419.684,3.278,1.081.822,2.219.412,3.327-.031,1.918-.766,2.958-2.641,5.392-4.312-3.471,8.555-9.024,13.978-16.162,18.07,1.871-3.343,4.317-6.417,4.532-11.421-4.537,9.792-11.108,16.017-20.564,18.908.747-1.722,2.592-1.749,3.919-2.568,4.227-2.613,8.239-5.4,9.681-10.622A42.618,42.618,0,0,1,299.98,434.24c-.7.265-.793.756-.907,1.329-3.868-.06-7.127,3.2-11.383,1.98,3.486-1.636,6.945-3.062,10.21-4.851,2.962-1.623,6.506-3.5,6.093-7.435-.445-4.25-4.43-5.281-7.923-6.385a3.221,3.221,0,0,0-4.163,1.414,80.875,80.875,0,0,1-15.663,16.645c-1.435,1.162-2.4,2.917-3.585,4.4l-1.347.657c-1.516-.068-2.232,1.152-3.042,2.076-2.635,3.006-2.148,4.737,1.752,5.328a23.163,23.163,0,0,0,11.7-1.68l2.8-.676c5.442-1.235,10.587-3.357,15.775-5.385-6.074,4.3-12.854,6.648-20.025,8.442a15.13,15.13,0,0,0-7.968,5.457,1.16,1.16,0,0,0-.057,1.606,3.41,3.41,0,0,0,3.2,1.039c2.666-.674,5.316-1.413,8.112-2.1l-5.986,3.542c-.847-.859-1.65-.2-2.534-.019-2.674.549-4.921.223-4.828-3.815-1.819,3.693-1.39,4.575,1.827,4.7,1.386.052,2.776-.007,4.165-.016-5.981,3.635-12.645,3.807-19.355,3.959,2.424-1.822,5.336-2.631,7.726-4.46a14.088,14.088,0,0,0,4.383-4.95c.7-1.433,1.081-2.942-.231-4.232-1.163-1.144-2.507-1.014-3.871-.28-1.277.688-2.583,1.321-4.244,2.165,1.224-3.818,3.713-6.237,6.579-9.492a123.786,123.786,0,0,0-12.422,6.579c-2.542,1.485-3.081,4.3-4.344,6.4-1.046,1.746,2.105,1.051,3.279,1.661-3.164,2.6-4.5,2.641-8.757.265.147-.635.676-.378,1.039-.425,2.141-.274,1.721-.192,1.373-2.256-.978-5.777-6.11-6.971-9.881-9.62-1.681-1.181-3.726-1.831-6.282-3.042,2.791,3.293,5.592,5.777,7,9.8-1.755-.811-3.26-1.416-4.677-2.189a2.683,2.683,0,0,0-3.514.492,3.074,3.074,0,0,0-.407,3.575c1.967,4.849,6.3,6.7,10.466,8.781.594.3,1.434.081,1.787.89-4.364,1.293-14.977-.768-19.247-3.739q2.1.067,4.191.135c1.081.037,2.259.006,2.742-1.1a2.4,2.4,0,0,0-1.147-3.28c.445,3.576-1.707,3.811-4.131,3.636C223.2,459.692,222.156,458.47,221.086,459.746Zm92.433-93.926c-1.229,2.561-1.187,5.341-1.648,8.18,1.442-.4,1.047-1.99,2.194-2.713.054,2.392-.534,4.929,2.212,5.631,3.151.805,5.6-.961,7.931-2.837-1.7.169-3.12,1.274-4.925,1.2-1.821-.071-3.12-.549-3.806-2.394-.5-1.339,1.041-3.322-1.418-4.149-.479-.161.34-2.026-.612-2.875a8.1,8.1,0,0,0-.691-3.052c-2.519-5.3-9.319-7.458-12.994-4.12-1.468,1.335-1.756,2.188.23,3.338A29.875,29.875,0,0,0,313.519,365.82Zm-63.986-22.831a161.623,161.623,0,0,0-33.605,3.689c-3.822.874-6.3,1.9-7.2,6.677-1.671,8.8-8.564,12.8-16.643,14.519-2.533.54-2.675,1.507-2.24,3.518,2.9,13.41,7.158,26.319,14,38.232,10.144,17.665,23.936,30.938,43.806,36.814a6.057,6.057,0,0,0,3.69.068,66.125,66.125,0,0,0,28.731-16.835c16.109-16.008,24.454-36.087,29.123-58.039.519-2.44.408-3.226-2.375-3.821-9.018-1.925-15.557-6.953-17.082-16.742-.375-2.406-1.6-3.076-3.467-3.582C274.245,344.232,261.958,343.188,249.532,342.989Zm3.135,106.033c-2.293,1.5-4.341.674-6.771.2l3.821,4.554C250.049,451.69,251.8,451.034,252.667,449.022Z" transform="translate(-129.523 -298.111)" fill="#fff"/>
      <path id="Path_2" data-name="Path 2" d="M202.707,476.368c3.193,1.169,5.594,2.19,7.33,4.252,11.038,13.107,21.92,26.373,36.959,35.279,3.114,1.844,6.306,3.553,9.48,5.334-.836.92-1.833-.117-2.9.393,3.28,3.018,6.83,5.005,11.321,4.977.724,0,1.827-.412,1.926.89a3.9,3.9,0,0,1-.253,2.388c-.539.707-1.456.093-2.235-.169a102.154,102.154,0,0,1-35.089-20.675A131.087,131.087,0,0,1,202.707,476.368Z" transform="translate(-151.463 -346.557)" fill="#fff"/>
      <path id="Path_3" data-name="Path 3" d="M320.786,521.7c-1.379-.4-2.308.408-3.217-.237.052-.133.068-.382.181-.437,15.521-7.634,28.093-18.726,39.01-32.074,3.709-4.534,7.3-9.733,13.792-12.333-1.174,3.617-3.291,6.069-5.078,8.676-13.672,19.955-31.207,35.167-54.035,43.849-.765.291-1.536.57-2.3.862-1.233.473-1.877.043-1.692-1.259.114-.807-.823-2.259,1.208-2.111C313.309,526.973,316.976,524.77,320.786,521.7Z" transform="translate(-182.816 -346.628)" fill="#fff"/>
      <path id="Path_4" data-name="Path 4" d="M224.889,313.294c14.925-3.69,29.785-6.127,44.928-5.987.088,4.927-2.711,4.664-5.778,4.889-9.836.724-19.687,1.617-29.285,4.013C230.912,317.167,227.674,317.219,224.889,313.294Z" transform="translate(-158.009 -295.464)" fill="#fff"/>
      <path id="Path_5" data-name="Path 5" d="M281.522,537.991c4.213-.926,7.344-2.034,9.1-5.64-.789.309-1.7.825-1.816.688-1.661-2.045-1.916-2.308-4.46-1.536-3.408,1.033-6.508.223-9.587-1.093a14.75,14.75,0,0,1-1.889-1.287c4.279.485,7.882,2.021,11.661,1.155.36-.083,1.347-.2,1.079-.954-.106-.3-.978-.327-1.766-.554,3.382-1.011,5.837-4.332,8.472-4.317,2.487.014,4.866,3.329,7.9,4.109-.184.987-1.333.161-1.657.984,3.562,2.38,7.268-.085,11,.21-2.007,1.707-2.007,1.707-14.566,1.236l1.773,3.225-2.683-1.5c1.858,3.594,4.891,4.352,8.671,5.227-3.706.83-6.428.522-8.989-1.4-.06,6.713,1.241,13.3-1.429,20.517-3.61-7.036-.649-13.694-1.994-20.229C287.891,538.4,285.277,538.747,281.522,537.991Z" transform="translate(-172.283 -360.437)" fill="#fff"/>
      <path id="Path_6" data-name="Path 6" d="M356.392,313.306c-3.577,6.178-8.519,2.739-12.775,2.02a195.584,195.584,0,0,0-28.371-3.191c-3.235-.069-2.753-2.425-3.338-3.836-.292-.7,1.866-1.416,3.209-1.331a247.19,247.19,0,0,1,27.69,3.18A83.772,83.772,0,0,1,356.392,313.306Z" transform="translate(-183.991 -295.366)" fill="#fff"/>
      <path id="Path_7" data-name="Path 7" d="M418.713,405.058c-1.48-2.678-1.963-4.949-1.056-7.68a114.91,114.91,0,0,0,2.982-11.571c.674-3.071,2.5-5.5,3.956-8.161,1.561-2.855,2.8-5.884,4.394-9.287C427.745,381.38,424.039,393.214,418.713,405.058Z" transform="translate(-215.358 -313.869)" fill="#fff"/>
      <path id="Path_8" data-name="Path 8" d="M214.855,323.246c-3.143.593-4.106,2.417-3.756,5.169.166,1.3-.8,2.791-.5,3.752.663,2.111-3.758,1.009-1.915,3.848,1.152,1.774-1.145,3.589-1.937,5.361-.937,2.095-2.225,2.273-4.139.882-1.4-1.015-1.579-1.7-.549-3.055a21.167,21.167,0,0,0,4.15-14.267c-.134-2.52.478-3.722,2.7-4.782,2.527-1.2,3.649.49,5.079,1.784A8.6,8.6,0,0,1,214.855,323.246Z" transform="translate(-150.894 -299.056)" fill="#fff"/>
      <path id="Path_9" data-name="Path 9" d="M166.078,369.29c6.2,11.173,11.608,22.307,10.929,35.293C171.323,393.533,167.274,381.986,166.078,369.29Z" transform="translate(-140.075 -314.141)" fill="#fff"/>
      <path id="Path_10" data-name="Path 10" d="M387.058,333.548c-1.729.568-2.655,1.037-3.057-1.017-.366-1.867-.256-3.756-.7-5.583-.266-1.086-.012-2.406-1.571-2.842-2.55-.714-1.655-1.8-.335-3.06,1.522-1.456,2.933-1.359,4.8-.528s1.9,1.839,1.878,3.707a24.7,24.7,0,0,0,4.112,14.7c.9,1.31,1.721,2.244-.434,3.5-1.96,1.147-2.919.832-3.944-.882C386.368,339.143,384.474,336.838,387.058,333.548Z" transform="translate(-204.022 -299.106)" fill="#fff"/>
      <path id="Path_11" data-name="Path 11" d="M403.412,404.034a49.1,49.1,0,0,1-11.175,23.823c2.394-6.766,4.681-13.565,6.784-20.426C399.589,405.58,401.744,405.359,403.412,404.034Z" transform="translate(-207.612 -324.442)" fill="#fff"/>
      <path id="Path_12" data-name="Path 12" d="M299.424,304.563c1.113-.065,2.146-.2,3.172-.162a1.569,1.569,0,0,1,1.634,1.532c.029.539-.094,1.409-.435,1.589-1.459.774-.679-.92-1.222-1.241a2.422,2.422,0,0,0-3.17.561c-1.547,1.505-2.864,1.374-4.559.014-1.965-1.577-2.635-1.27-4.1.992-1.21-3.353-.648-3.824,3.959-3.286.6-1.722-1.047-1.954-1.864-2.694,1.421-.979,2.3.469,3.34.762.827-3.707-.684-7.468.781-11.97,2.256,4.365.123,8.263,1.215,11.9,1.019-.27,1.939-1.689,3.358-.663C300.655,302.52,299.259,302.683,299.424,304.563Z" transform="translate(-177.297 -290.661)" fill="#fff"/>
      <path id="Path_13" data-name="Path 13" d="M192.227,404.616c3.079,1.093,4.344,3.089,5.127,5.981,1.456,5.38,3.466,10.609,5.3,16.072C197.655,421.425,193.024,411.646,192.227,404.616Z" transform="translate(-148.159 -324.604)" fill="#fff"/>
      <path id="Path_14" data-name="Path 14" d="M405.5,385.708c.5-2.513,1.071-4.654,1.317-6.83.147-1.3.979-3.271-1.708-3.276-.9,0-.821-.642-.524-1.231,1.105-2.194,2.754-2.176,4.989-1.746,2.415.466,1.766,1.973,1.449,3.123-.87,3.157-.092,7.031-3.673,9.09C406.87,385.112,406.349,385.311,405.5,385.708Z" transform="translate(-211.657 -314.972)" fill="#fff"/>
      <path id="Path_15" data-name="Path 15" d="M191.359,385.637c-3.915-2.414-6.223-7.417-5.45-11.541.47-2.51,2.833-1.626,4.272-1.83,1.185-.169,2.006,1.39,2.352,2.709.026.1.016.3-.018.31-5.662,1.623-.711,5.327-1.513,7.911C190.819,383.783,191.179,384.538,191.359,385.637Z" transform="translate(-145.756 -314.929)" fill="#fff"/>
      <path id="Path_16" data-name="Path 16" d="M330.183,492.659l1.363-.657c-.147,4.606,1.1,5.614,6.4,5.291,1.876-.114,3.844-1.174,5.6.415l-2.832.676c-3.032-.2-5.931,1.093-8.994.765-1.4-.151-3.009-.065-3.713-1.363-.751-1.386.338-2.63,1.191-3.751C329.539,493.587,329.855,493.118,330.183,492.659Z" transform="translate(-188.48 -350.49)" fill="#fff"/>
      <path id="Path_17" data-name="Path 17" d="M261.966,492.012l1.371.649a12.29,12.29,0,0,0,.75,1.118c.981,1.175,2.216,2.489,1.415,4-.76,1.436-2.533,1.433-4.054,1.326-2.882-.2-5.76-.478-8.64-.723l-2.9-.738c1.8-1.434,3.767-.483,5.667-.36C260.874,497.632,262.131,496.607,261.966,492.012Z" transform="translate(-165.328 -350.492)" fill="#fff"/>
      <path id="Path_18" data-name="Path 18" d="M373.591,347.541c-.906-3.562-2.372-6.957-1.287-10.623.217-.731.021-2.089,1.477-1.983,1.313.1,1.777.924,1.753,2.152a22.821,22.821,0,0,0,.63,6.239C376.687,345.361,375.252,346.516,373.591,347.541Z" transform="translate(-201.514 -303.827)" fill="#fff"/>
      <path id="Path_19" data-name="Path 19" d="M224.594,347.29c-2.391-1.066-3.086-2.547-2.638-4.5a21.334,21.334,0,0,0,.657-5.946c-.058-1.071.318-1.847,1.529-1.958,1.151-.105,1.183.728,1.488,1.533C227.049,340.169,225.2,343.522,224.594,347.29Z" transform="translate(-156.937 -303.809)" fill="#fff"/>
      <path id="Path_20" data-name="Path 20" d="M414.156,365.278c2.927-3.9,6.411-3.907,10.169-2.259C422.577,367.8,420.673,368.255,414.156,365.278Z" transform="translate(-214.48 -311.846)" fill="#fff"/>
      <path id="Path_21" data-name="Path 21" d="M181.51,365.26c-6.293,3-8.26,2.557-10.153-2.247C175.12,361.4,178.615,361.321,181.51,365.26Z" transform="translate(-141.598 -311.845)" fill="#fff"/>
      <path id="Path_22" data-name="Path 22" d="M260.579,325.253c4.814-.595,8.941-1.392,13.346-1.3C265.59,329.429,265.59,329.429,260.579,325.253Z" transform="translate(-168.489 -300.267)" fill="#fff"/>
      <path id="Path_23" data-name="Path 23" d="M320.139,324.2c4.455-.377,8.772.5,13.254,1.157C328.084,332.231,324.436,325.263,320.139,324.2Z" transform="translate(-186.197 -300.316)" fill="#fff"/>
      <path id="Path_24" data-name="Path 24" d="M248.848,330.834c-2.32.527-4.467,1.044-6.628,1.5a2.383,2.383,0,0,1-2.905-1.953c-.31-1.432,1.315-1.3,2.185-1.573C244.144,327.967,246.787,327.45,248.848,330.834Z" transform="translate(-162.14 -301.492)" fill="#fff"/>
      <path id="Path_25" data-name="Path 25" d="M356.873,329.751c-.829,3.307-1.642,3.274-9.526.851C349.756,327.443,349.955,327.324,356.873,329.751Z" transform="translate(-194.256 -301.458)" fill="#fff"/>
      <path id="Path_26" data-name="Path 26" d="M289.9,326.824a29.555,29.555,0,0,0-2.766-1.462c-1.532-.623-2.6-1.227-1.98-3.316.559-1.874,1.107-3.287,3.4-3.231,1.709.041,3.493-.359,4.905,1.241-1.152.8-1.749-.528-2.7-.386a3.56,3.56,0,0,0-3.1,1.887c-.747,1.519,0,2.36,1.194,3.094a2.33,2.33,0,0,1,1.318,1.955Z" transform="translate(-175.712 -298.783)" fill="#fff"/>
      <path id="Path_27" data-name="Path 27" d="M306.41,326.548c.254-.5.385-1.159.785-1.478,1.279-1.022,2.924-1.872,1.537-3.855a3.087,3.087,0,0,0-4.541-1.02c-.274.161-.662.341-.943-.283,1.93-1.888,4.292-1.337,6.488-.787,1.677.42,1.711,2.331,1.716,3.561.011,2.975-3.049,2.851-4.779,4.086Z" transform="translate(-181.143 -298.726)" fill="#fff"/>
      <path id="Path_28" data-name="Path 28" d="M255.283,509.511c-3.746-1.129-7.7-1.82-10.357-5.211C248.678,505.393,252.627,506.055,255.283,509.511Z" transform="translate(-163.822 -354.126)" fill="#fff"/>
      <path id="Path_29" data-name="Path 29" d="M339.8,509.475c2.868-3.676,6.973-3.85,10.583-5.768C348.507,506.856,345.752,508.334,339.8,509.475Z" transform="translate(-192.021 -353.955)" fill="#fff"/>
      <path id="Path_30" data-name="Path 30" d="M317.519,333.634c1.231-1.057,2.656-1.772,1.942-3.089-1.281-2.366-3.607-1.412-5.667-1.275,2.234-1.523,4.507-1.889,6.893-.54a1.728,1.728,0,0,1,1.026,2.049C321.18,332.451,320.109,333.573,317.519,333.634Z" transform="translate(-184.274 -301.409)" fill="#fff"/>
      <path id="Path_31" data-name="Path 31" d="M284.078,329.347c-2.971.073-5.333-1.214-6.714,1.052-.878,1.44.758,2.1,1.641,3.275-2.458-.183-4-1.332-3.88-3.4.117-1.993,2.094-2.187,3.8-2.315C280.461,327.84,281.776,328.342,284.078,329.347Z" transform="translate(-172.788 -301.421)" fill="#fff"/>
      <path id="Path_32" data-name="Path 32" d="M237.2,491.606c-2.655-.711-5.337-.573-6.883-3.575C233.217,488.181,235.918,488,237.2,491.606Z" transform="translate(-159.466 -349.279)" fill="#fff"/>
      <path id="Path_33" data-name="Path 33" d="M366.621,487.808c-1.8,3.373-4.5,3.032-7.225,4.008C360.806,488.145,363.468,488.31,366.621,487.808Z" transform="translate(-197.817 -349.216)" fill="#fff"/>
      <path id="Path_34" data-name="Path 34" d="M298.163,326.206a23.129,23.129,0,0,1-2.754-.6c-.789-.27-2.268-.42-1.552-1.678.674-1.184,1.231.334,1.878.541,1.6.514,3.225.834,4.8-.124.6-.364,1.273-1.5,1.823-.215.477,1.112-.779,1.226-1.475,1.461A25.231,25.231,0,0,1,298.163,326.206Z" transform="translate(-178.299 -300.135)" fill="#fff"/>
      <path id="Path_35" data-name="Path 35" d="M277.675,360.7c11.577.159,23.068.967,34.234,4.394,1.829.561,2.736,1.257,3.077,3.47,1.189,7.726,5.642,12.19,12.869,13.629,5.1,1.016,5.058,1.009,4.077,6.12-2.855,14.871-8.3,28.662-17.252,40.939-8.51,11.67-19.489,20.032-33.356,24.467a10.467,10.467,0,0,1-6.76.006c-20.953-6.67-34.039-21.591-42.958-40.841a119.564,119.564,0,0,1-8.481-27.563c-.3-1.546-.11-2.256,1.78-2.493,8.894-1.115,14.79-5.716,16.282-14.93.3-1.877,1.443-2.364,2.981-2.862C255.072,361.509,266.338,360.841,277.675,360.7Zm26.6,50.442a7.3,7.3,0,0,1-.331,2.091c-1.273,2.628-.245,3.314,2.33,3.146a36.067,36.067,0,0,1,6.743.02c3.752.465,5.388-1.254,5.846-5.15H304.191c2.357-6.706,7.405-8.234,13.806-7.2.577.093,1.189-.048,1.773.021,2.015.24,3.017-.686,3.51-2.611q1.484-5.8,3.233-11.524c.8-2.584.5-4.068-2.621-4.632-5.963-1.075-11.113-4.284-12.213-10.3-.97-5.3-4.151-6.1-8.1-6.921-.8-.168-1.615-.3-2.413-.487-7.89-1.892-15.277-1.9-22.41,3.2-5.354,3.83-11.53,6.51-17.34,9.7a18.66,18.66,0,0,0,6.4.812c1.035.013,2.128-.176,2.222,1.492a21.626,21.626,0,0,0,7.034,14.8c-5.59,1.514-10.9.6-16.149.88-1.568.082-1.97-.968-2.375-2.1-1.184-3.316-2.384-6.627-3.538-9.953-.256-.738-.415-2.024-1.29-1.581-2.116,1.072-4.925,1.4-5.774,4.161-.509,1.655-1.557,3.236-1.262,5.043.315,1.925,2.379,2.626,3.859,4.429-6.029,0-11.453.036-16.875-.021-1.781-.018-2.167.355-1.566,2.232a95.714,95.714,0,0,0,7.493,17.45c8.127,14.59,19.189,25.876,35.583,31.057a6.4,6.4,0,0,0,3.783.492,54.668,54.668,0,0,0,21.624-12.1h-21.38c-.2-1.271.563-1.6,1.061-2.007,4.4-3.615,7.767-7.922,8.805-13.657.238-1.31,1.133-1.414,1.924-1.709A33.39,33.39,0,0,0,304.275,411.146Zm-52.949-33.61.647.591c5.238-2.892,10.484-5.769,15.705-8.69.831-.465,2.232-.769,1.716-2.127a2.329,2.329,0,0,0-2.638-1.364c-3.615.479-7.231.947-10.844,1.438-1.247.17-1.768,1.2-2.1,2.177C252.905,372.194,252.144,374.874,251.326,377.536Zm61.019,46.56c-3.794,0-6.843-.012-9.892.008-.806.005-1.721-.106-2.044.955a64.2,64.2,0,0,0-2.24,7.729c-.264,1.546,1,2.774,2.428,3.6,1.6.921,2.066-.6,2.812-1.3A59.194,59.194,0,0,0,312.345,424.1Zm-76.681-39.3c-1.382-.582-1.995.258-2.813.329-3.648.319-5.2,1.957-3.471,5.623.142.3-.026.764.142,1.033.508.814.1,2.456,1.492,2.372,1-.061,1.64-1.078,2-2.208C233.788,389.529,234.764,387.183,235.664,384.792Z" transform="translate(-157.902 -311.963)" fill="#fff"/>
      <path id="Path_36" data-name="Path 36" d="M266.375,427.875q4.039-1.1,8.076-2.2c.094-.026.155-.173.339-.39-5.661-3.849-10.341-8.235-7.786-16.575.658,1.979,1.578,2.8,3.3,2.583a26.729,26.729,0,0,1,3.551-.033c2.13.019,4.572-.588,6.309.253,1.94.94.5,3.627.965,5.5,1.671,6.693,8.239,9.3,14.09,5.526,6.052-3.9,8.491-13.566,4.957-19.491a7.692,7.692,0,0,0-8.32-3.966c-1.371.19-2.8.741-3.7-1-1.031-1.977-1.311-3.232,1.709-3.193,8.4.107,16.812.037,25.35.518l-6.929,2c-.211.763.413.908.9,1.237,9.967,6.8,9.865,16.947-.184,23.819a34.232,34.232,0,0,1-17.9,5.821c-7.327.368-14.686.095-22.031.1h-2.818Z" transform="translate(-170.402 -321.774)" fill="#fff"/>
      <path id="Path_37" data-name="Path 37" d="M318.8,375.173c.785,1.667,1.714,2.992,2.513,4.361,1.376-.447.707-2.19,2.063-2.975l1.424,3.008a10.618,10.618,0,0,0,2.542-4.6c.2,1.545-.193,2.981.243,4.4,1.4.135,1.212-1.641,2.317-1.889.091.129.319.366.284.414-1.347,1.875.042,5.743-3.95,5.672-9.908-.177-7.6,1.467-10.076-5.937,1.424-.314,1.347,1.625,2.64,1.736Z" transform="translate(-185.02 -315.719)" fill="#fff"/>
      <path id="Path_38" data-name="Path 38" d="M319.334,389.71a19.463,19.463,0,0,1,9.472-.155C325.691,390.616,322.518,390.269,319.334,389.71Z" transform="translate(-185.931 -319.871)" fill="#fff"/>
    </g>
    <g id="Group_3-2" data-name="Group 3" transform="translate(166.98 422.393)">
      <g id="Group_2" data-name="Group 2" transform="translate(0)">
        <path id="Path_39" data-name="Path 39" d="M188.867,484.027l-1.29,4.215a5.7,5.7,0,0,0-.314,1.65,2.825,2.825,0,0,0,.228,1.11l-.2.108-1.882-3.568.2-.107a.868.868,0,0,0,.351.4.344.344,0,0,0,.314.014.584.584,0,0,0,.211-.178,2.431,2.431,0,0,0,.21-.552l1.2-3.939-2.417,1.275a2.763,2.763,0,0,0-.713.469.56.56,0,0,0-.116.357,1.144,1.144,0,0,0,.133.573l.134.254-.2.108-1.686-3.2.2-.108.139.265a.906.906,0,0,0,.627.532,1.9,1.9,0,0,0,.921-.317l4.844-2.555a2.876,2.876,0,0,0,.72-.472.582.582,0,0,0,.113-.35,1.191,1.191,0,0,0-.136-.578l-.141-.265.2-.108,1.687,3.2-.206.108-.134-.255a1.207,1.207,0,0,0-.393-.435.54.54,0,0,0-.391-.1,2.886,2.886,0,0,0-.765.319l-2.295,1.211c.109.036.477.164,1.1.387a18.9,18.9,0,0,0,3.055.926.812.812,0,0,0,.466-.055.321.321,0,0,0,.163-.234.706.706,0,0,0-.11-.444l-.09-.171.2-.108,1.453,2.754-.2.108a1.835,1.835,0,0,0-.3-.407,2.541,2.541,0,0,0-.492-.363,5.361,5.361,0,0,0-.935-.413q-.175-.064-1.726-.524Z" transform="translate(-183.023 -479.069)" fill="#fff"/>
        <path id="Path_40" data-name="Path 40" d="M199.788,494.581a3.848,3.848,0,0,1,.5,3.083,4.336,4.336,0,0,1-1.975,2.713,4.461,4.461,0,0,1-3.356.713,4.076,4.076,0,0,1-3.22-4.935,4.466,4.466,0,0,1,2.061-2.746,4.288,4.288,0,0,1,3.515-.63A4.057,4.057,0,0,1,199.788,494.581Zm-.448.147a2.237,2.237,0,0,0-1.7-1.077,4.762,4.762,0,0,0-3.049.948,5.022,5.022,0,0,0-2.2,2.477,2.192,2.192,0,0,0,.261,1.973A2.457,2.457,0,0,0,194.5,500.2a4.535,4.535,0,0,0,2.892-.938,5.125,5.125,0,0,0,2.263-2.479A2.308,2.308,0,0,0,199.34,494.729Z" transform="translate(-185.503 -482.987)" fill="#fff"/>
        <path id="Path_41" data-name="Path 41" d="M204.743,503.061l-2.658,2.01.932,1.232a1.1,1.1,0,0,0,.657.479,1.552,1.552,0,0,0,.938-.3l.139.184-2.288,1.731-.14-.184a1.67,1.67,0,0,0,.5-.54.806.806,0,0,0,.073-.478,1.385,1.385,0,0,0-.294-.581l-.931-1.231-2.124,1.606a2.832,2.832,0,0,0-.629.578.558.558,0,0,0-.056.371,1.188,1.188,0,0,0,.227.549l.185.245-.184.139-2.2-2.9.184-.139.181.239a.907.907,0,0,0,.7.423,1.9,1.9,0,0,0,.858-.461l4.368-3.3a2.818,2.818,0,0,0,.629-.577.569.569,0,0,0,.06-.367,1.165,1.165,0,0,0-.227-.549l-.181-.239.184-.14,3.806,5.031-1.438,1.189-.132-.175a2.556,2.556,0,0,0,.467-.827,1.242,1.242,0,0,0,0-.667,2.843,2.843,0,0,0-.491-.856Z" transform="translate(-187.027 -485.358)" fill="#fff"/>
        <path id="Path_42" data-name="Path 42" d="M210.234,511.946l.225-.19a2.826,2.826,0,0,0,1.109.212.987.987,0,0,0,.54-.242.49.49,0,0,0,.176-.237.213.213,0,0,0-.033-.186.546.546,0,0,0-.15-.11.885.885,0,0,1-.216-.169.673.673,0,0,1,.59-1.076.9.9,0,0,1,.584.326,1.016,1.016,0,0,1,.214.8,1.225,1.225,0,0,1-.457.821,1.941,1.941,0,0,1-1.387.44A2.738,2.738,0,0,1,210.234,511.946Z" transform="translate(-190.877 -487.981)" fill="#fff"/>
        <path id="Path_43" data-name="Path 43" d="M207.563,519.8l.17-.157a3.329,3.329,0,0,0,1.3.854,4.049,4.049,0,0,0,1.858.126,5.6,5.6,0,0,0,2.091-.694,3.359,3.359,0,0,1-1.669-.875,2.009,2.009,0,0,1-.533-1.593,2.6,2.6,0,0,1,.915-1.714,3.262,3.262,0,0,1,1.889-.876,2.374,2.374,0,0,1,2.138.756,2.284,2.284,0,0,1,.58,1.9,3.921,3.921,0,0,1-1.318,2.461,5.244,5.244,0,0,1-2.406,1.279,5.853,5.853,0,0,1-2.8-.041,3.921,3.921,0,0,1-1.977-1.162Zm5.832-.112a9.753,9.753,0,0,0,1.031-.8,4.63,4.63,0,0,0,.822-1.04,2.468,2.468,0,0,0,.4-1.161,1.193,1.193,0,0,0-.308-.886,1.249,1.249,0,0,0-1.029-.377,2.278,2.278,0,0,0-1.377.7,3.38,3.38,0,0,0-1.137,1.809,1.216,1.216,0,0,0,.284,1.1,2.1,2.1,0,0,0,.564.408A2.187,2.187,0,0,0,213.395,519.684Z" transform="translate(-190.107 -489.395)" fill="#fff"/>
        <path id="Path_44" data-name="Path 44" d="M218.789,524.564a5.865,5.865,0,0,1-.011-1.855,2.043,2.043,0,0,1,.513-.948,1.88,1.88,0,0,1,1.448-.577,2.711,2.711,0,0,1,2.431,2.3,1.666,1.666,0,0,1-.433,1.347,1.724,1.724,0,0,1-.917.461,4.9,4.9,0,0,1-1.82-.143,7.966,7.966,0,0,1,.116,1.975,2.223,2.223,0,0,1-.593,1.3,2.014,2.014,0,0,1-1.553.623,2.515,2.515,0,0,1-1.726-.787,2.392,2.392,0,0,1-.827-1.852A1.872,1.872,0,0,1,217,524.536,5.463,5.463,0,0,1,218.789,524.564Zm.046.375a2.932,2.932,0,0,0-1.216.151,2.518,2.518,0,0,0-.956.628,1.849,1.849,0,0,0-.581,1.234,1.454,1.454,0,0,0,.469,1.129,1.521,1.521,0,0,0,1.043.477,1.216,1.216,0,0,0,.935-.382,1.415,1.415,0,0,0,.391-.745A8.943,8.943,0,0,0,218.834,524.939Zm1.125-.172a4.446,4.446,0,0,0,1.425-.106,1.919,1.919,0,0,0,.758-.5,1.4,1.4,0,0,0,.45-1,1.357,1.357,0,0,0-.465-.968,1.471,1.471,0,0,0-1-.456,1.141,1.141,0,0,0-.888.341,1.412,1.412,0,0,0-.333.583,2.313,2.313,0,0,0-.091.773Z" transform="translate(-192.373 -491.225)" fill="#fff"/>
        <path id="Path_45" data-name="Path 45" d="M234.57,532.349l.144-.181,2.342,1.878-.145.181-.248-.2a.86.86,0,0,0-.862-.154,1.911,1.911,0,0,0-.665.62l-2.151,2.683a6.1,6.1,0,0,1-1.436,1.385,2.491,2.491,0,0,1-1.531.32,3.549,3.549,0,0,1-1.887-.869,3.8,3.8,0,0,1-1.343-1.694,2.609,2.609,0,0,1,.014-1.647,7.161,7.161,0,0,1,1.15-1.755l2.073-2.585a1.661,1.661,0,0,0,.473-.935.883.883,0,0,0-.391-.626l-.249-.2.144-.181,2.859,2.291-.145.181-.253-.2a.843.843,0,0,0-.792-.211,1.836,1.836,0,0,0-.708.635l-2.311,2.882a7.99,7.99,0,0,0-.637.94,2.4,2.4,0,0,0-.366.981,1.77,1.77,0,0,0,.166.886,2.369,2.369,0,0,0,.711.868,3.042,3.042,0,0,0,1.387.648,1.941,1.941,0,0,0,1.281-.164,5.367,5.367,0,0,0,1.386-1.344l2.147-2.679a1.748,1.748,0,0,0,.486-.885.924.924,0,0,0-.394-.669Z" transform="translate(-195.619 -493.306)" fill="#fff"/>
        <path id="Path_46" data-name="Path 46" d="M238.853,546.294l1.268-7.747-3.165,4.7a1.729,1.729,0,0,0-.4.9.925.925,0,0,0,.46.626l.249.169-.129.191-2.448-1.649.129-.191.249.167a.862.862,0,0,0,.814.157,1.891,1.891,0,0,0,.625-.68l3.094-4.595a1.931,1.931,0,0,0,.351-.744.7.7,0,0,0-.1-.431,1.723,1.723,0,0,0-.556-.521l.129-.192,1.992,1.342-1.154,7.22,6.215-3.812,1.992,1.342-.129.192-.244-.164a.868.868,0,0,0-.819-.16,1.9,1.9,0,0,0-.624.68l-3.1,4.594a1.691,1.691,0,0,0-.4.907.927.927,0,0,0,.461.627l.243.165-.129.19-2.987-2.012.129-.191.249.167a.853.853,0,0,0,.815.156,1.9,1.9,0,0,0,.624-.68l3.165-4.7-6.7,4.09Z" transform="translate(-197.935 -495.633)" fill="#fff"/>
        <path id="Path_47" data-name="Path 47" d="M261.243,549.914a3.848,3.848,0,0,1,1.931,2.454,4.328,4.328,0,0,1-.408,3.33,4.458,4.458,0,0,1-2.587,2.254,4.075,4.075,0,0,1-5.211-2.75,4.464,4.464,0,0,1,.467-3.4,4.289,4.289,0,0,1,2.766-2.257A4.06,4.06,0,0,1,261.243,549.914Zm-.321.347a2.235,2.235,0,0,0-2.007-.116,4.77,4.77,0,0,0-2.205,2.308,5.035,5.035,0,0,0-.724,3.237,2.191,2.191,0,0,0,1.187,1.6,2.456,2.456,0,0,0,2.178.109,4.539,4.539,0,0,0,2.072-2.224,5.132,5.132,0,0,0,.774-3.266A2.309,2.309,0,0,0,260.922,550.26Z" transform="translate(-203.745 -499.37)" fill="#fff"/>
        <path id="Path_48" data-name="Path 48" d="M271.916,561.922l.169.127-1.621,1.787-5.963-2.744.1-.21.289.132a.848.848,0,0,0,.844,0,2,2,0,0,0,.507-.785l2.287-4.97a1.751,1.751,0,0,0,.257-.976.92.92,0,0,0-.544-.553l-.29-.133.1-.21,3.488,1.6-.1.21a2.321,2.321,0,0,0-.913-.282.762.762,0,0,0-.477.145,2.751,2.751,0,0,0-.491.827l-2.227,4.839a1.744,1.744,0,0,0-.207.69.446.446,0,0,0,.129.272,4.053,4.053,0,0,0,.86.465l.562.259a4.48,4.48,0,0,0,1.3.442,1.788,1.788,0,0,0,.866-.162A4.205,4.205,0,0,0,271.916,561.922Z" transform="translate(-206.542 -500.522)" fill="#fff"/>
      </g>
    </g>
    <g id="Group_5" data-name="Group 5" transform="translate(266.077 437.642)">
      <g id="Group_4" data-name="Group 4" transform="translate(0)">
        <path id="Path_49" data-name="Path 49" d="M330.011,551.47l-.1-.21,2.727-1.253.1.21-.29.133a.859.859,0,0,0-.523.7,1.9,1.9,0,0,0,.255.872l1.437,3.125a6.128,6.128,0,0,1,.6,1.9,2.48,2.48,0,0,1-.4,1.511,3.541,3.541,0,0,1-1.622,1.3,3.8,3.8,0,0,1-2.116.442,2.61,2.61,0,0,1-1.466-.751,7.179,7.179,0,0,1-1.054-1.814l-1.383-3.011a1.667,1.667,0,0,0-.624-.842.883.883,0,0,0-.735.07l-.289.133-.1-.21,3.328-1.53.1.211-.3.135a.84.84,0,0,0-.543.615,1.85,1.85,0,0,0,.249.918l1.543,3.357a7.991,7.991,0,0,0,.554.991,2.4,2.4,0,0,0,.714.766,1.79,1.79,0,0,0,.867.249,2.377,2.377,0,0,0,1.094-.249,3.014,3.014,0,0,0,1.2-.95,1.938,1.938,0,0,0,.427-1.219,5.372,5.372,0,0,0-.58-1.842l-1.433-3.118q-.331-.724-.575-.831a.914.914,0,0,0-.773.053Z" transform="translate(-324.426 -514.794)" fill="#fff"/>
        <path id="Path_50" data-name="Path 50" d="M341.46,545.782l1.419,2.566-.2.111a3.65,3.65,0,0,0-1-.98,2.105,2.105,0,0,0-1.108-.293,2.3,2.3,0,0,0-1.116.282,1.512,1.512,0,0,0-.748.868,1.2,1.2,0,0,0,.065,1,1.073,1.073,0,0,0,.577.489,6.916,6.916,0,0,0,2.219.2,12.767,12.767,0,0,1,1.893.071,2.381,2.381,0,0,1,.975.378,2.119,2.119,0,0,1,.675.735,2.194,2.194,0,0,1,.15,1.814,2.7,2.7,0,0,1-1.345,1.541,4.073,4.073,0,0,1-.634.286,6.724,6.724,0,0,1-.813.189,3.673,3.673,0,0,0-.772.2.331.331,0,0,0-.17.2.752.752,0,0,0,.07.4l-.2.111-1.408-2.543.2-.111a4.113,4.113,0,0,0,1.045.982,2.092,2.092,0,0,0,1.1.253,2.605,2.605,0,0,0,1.231-.339,1.762,1.762,0,0,0,.881-.958,1.28,1.28,0,0,0-.075-1.073,1.317,1.317,0,0,0-.457-.47,1.861,1.861,0,0,0-.755-.26,15.288,15.288,0,0,0-1.551-.053,12.881,12.881,0,0,1-1.825-.1,2.624,2.624,0,0,1-1-.363,1.984,1.984,0,0,1-.674-.728,2.088,2.088,0,0,1-.149-1.715,2.494,2.494,0,0,1,1.239-1.439,3.57,3.57,0,0,1,1.413-.4,1.478,1.478,0,0,0,.508-.1.365.365,0,0,0,.186-.213.772.772,0,0,0-.044-.423Z" transform="translate(-328.298 -513.574)" fill="#fff"/>
        <path id="Path_51" data-name="Path 51" d="M353.432,538.138l1.65,2.423-.191.131a3.656,3.656,0,0,0-1.089-.884,2.1,2.1,0,0,0-1.133-.19,2.3,2.3,0,0,0-1.084.384,1.512,1.512,0,0,0-.666.933,1.21,1.21,0,0,0,.157.987,1.076,1.076,0,0,0,.62.432,6.911,6.911,0,0,0,2.229,0,12.811,12.811,0,0,1,1.891-.105,2.394,2.394,0,0,1,1,.287,2.123,2.123,0,0,1,.741.67,2.2,2.2,0,0,1,.317,1.792,2.707,2.707,0,0,1-1.2,1.658,4.107,4.107,0,0,1-.605.344,7.207,7.207,0,0,1-.793.264,3.629,3.629,0,0,0-.749.272.329.329,0,0,0-.152.216.755.755,0,0,0,.107.4l-.191.131-1.637-2.4.191-.13a4.1,4.1,0,0,0,1.131.882,2.1,2.1,0,0,0,1.12.15,2.619,2.619,0,0,0,1.194-.449,1.771,1.771,0,0,0,.788-1.037,1.283,1.283,0,0,0-.174-1.062,1.321,1.321,0,0,0-.5-.425,1.891,1.891,0,0,0-.777-.191,15.368,15.368,0,0,0-1.549.091,12.688,12.688,0,0,1-1.825.068,2.608,2.608,0,0,1-1.027-.269,2,2,0,0,1-.739-.662,2.086,2.086,0,0,1-.306-1.694,2.485,2.485,0,0,1,1.1-1.547,3.562,3.562,0,0,1,1.369-.533,1.46,1.46,0,0,0,.5-.149.372.372,0,0,0,.165-.229.784.784,0,0,0-.083-.416Z" transform="translate(-331.846 -511.368)" fill="#fff"/>
        <path id="Path_52" data-name="Path 52" d="M358.636,534.573l2.063,2.641,1.467-1.147a1.522,1.522,0,0,0,.63-.769,1.406,1.406,0,0,0-.338-1.022l.182-.141,1.818,2.325-.183.143a3.194,3.194,0,0,0-.627-.518.783.783,0,0,0-.5-.044,1.876,1.876,0,0,0-.7.386l-1.469,1.147,1.719,2.2a2.565,2.565,0,0,0,.461.508.394.394,0,0,0,.258.046,1.082,1.082,0,0,0,.418-.236l1.134-.885a3.9,3.9,0,0,0,.761-.722,1.549,1.549,0,0,0,.25-.7,4.816,4.816,0,0,0-.094-1.41l.2-.154.731,2.125-5.149,4.022-.142-.183.237-.184a1.17,1.17,0,0,0,.359-.463.529.529,0,0,0,.031-.4,3,3,0,0,0-.447-.689l-3.391-4.341q-.5-.636-.74-.684a.976.976,0,0,0-.746.265l-.237.185-.141-.182,5.149-4.021,1.216,1.405-.191.15a2.925,2.925,0,0,0-.8-.545,1,1,0,0,0-.606-.01,2.783,2.783,0,0,0-.752.469Z" transform="translate(-333.67 -509.501)" fill="#fff"/>
        <path id="Path_53" data-name="Path 53" d="M376.761,530.055l-1.683,1.513-4.784-1.029q-.228.222-.379.356c-.04.037-.085.075-.132.114s-.1.083-.15.123l1.647,1.832q.533.6.794.622a.894.894,0,0,0,.715-.272l.246-.222.154.172-2.7,2.428-.155-.171.238-.213a.852.852,0,0,0,.337-.775,1.964,1.964,0,0,0-.516-.771l-3.662-4.073q-.534-.6-.794-.622a.92.92,0,0,0-.724.279l-.238.213-.154-.172,2.3-2.065a7.269,7.269,0,0,1,1.612-1.185,2.271,2.271,0,0,1,1.294-.188,1.9,1.9,0,0,1,1.175.637,1.989,1.989,0,0,1,.529,1.35,2.888,2.888,0,0,1-.631,1.66l2.927.637a4.342,4.342,0,0,0,1.512.138,2.6,2.6,0,0,0,1.071-.492Zm-7.391.785c.059-.053.111-.1.156-.135s.081-.068.109-.094A2.76,2.76,0,0,0,370.644,529a1.684,1.684,0,0,0-.437-1.406,1.75,1.75,0,0,0-1.233-.628,1.78,1.78,0,0,0-1.312.511,5.553,5.553,0,0,0-.65.744Z" transform="translate(-336.086 -507.843)" fill="#fff"/>
        <path id="Path_54" data-name="Path 54" d="M378.68,515.029l.165.162a1.374,1.374,0,0,0-.271.688,2.582,2.582,0,0,0,.26,1.075l3.092,7.158-.162.164-7.446-2.836a4.086,4.086,0,0,0-.733-.236,1.1,1.1,0,0,0-.486.063,1.763,1.763,0,0,0-.531.342l-.166-.162,2.421-2.477.167.162a1.574,1.574,0,0,0-.391.686.46.46,0,0,0,.141.383,2.848,2.848,0,0,0,.9.477l5.062,1.931-2.11-4.862a3.322,3.322,0,0,0-.515-.915.475.475,0,0,0-.375-.112,1.213,1.213,0,0,0-.6.275c-.018.012-.047.033-.087.063l-.166-.162Z" transform="translate(-338.275 -504.697)" fill="#fff"/>
        <path id="Path_55" data-name="Path 55" d="M383.326,511.218l2.549,2.176,1.21-1.417a1.521,1.521,0,0,0,.463-.88,1.414,1.414,0,0,0-.536-.933l.15-.176,2.244,1.916-.151.176a3.227,3.227,0,0,0-.716-.383.782.782,0,0,0-.5.057,1.872,1.872,0,0,0-.606.519l-1.21,1.416,2.124,1.815a2.615,2.615,0,0,0,.554.406.394.394,0,0,0,.261-.007,1.08,1.08,0,0,0,.363-.314l.934-1.093a3.922,3.922,0,0,0,.6-.859,1.562,1.562,0,0,0,.106-.731,4.81,4.81,0,0,0-.373-1.364l.162-.189,1.142,1.936-4.243,4.969-.176-.15.195-.229a1.179,1.179,0,0,0,.26-.526.518.518,0,0,0-.052-.4,2.9,2.9,0,0,0-.576-.587l-4.188-3.577q-.614-.523-.862-.521a.969.969,0,0,0-.677.408l-.195.228-.176-.149,4.242-4.969,1.473,1.134-.158.185a2.933,2.933,0,0,0-.888-.376.992.992,0,0,0-.6.112,2.818,2.818,0,0,0-.645.609Z" transform="translate(-340.874 -502.606)" fill="#fff"/>
        <path id="Path_56" data-name="Path 56" d="M400.184,503.243l-1.362,1.808-4.893-.092c-.122.174-.222.315-.3.421-.031.044-.068.089-.107.139s-.08.1-.124.149l1.968,1.482a1.727,1.727,0,0,0,.9.458.893.893,0,0,0,.648-.4l.2-.264.184.139-2.186,2.9-.184-.139.191-.255a.853.853,0,0,0,.183-.825,1.965,1.965,0,0,0-.656-.658l-4.374-3.294a1.741,1.741,0,0,0-.9-.459.917.917,0,0,0-.656.414l-.192.255-.185-.139,1.858-2.467a7.361,7.361,0,0,1,1.356-1.473,2.271,2.271,0,0,1,1.234-.432,1.884,1.884,0,0,1,1.275.4,1.974,1.974,0,0,1,.777,1.223,2.878,2.878,0,0,1-.3,1.751l3,.065a4.348,4.348,0,0,0,1.51-.155A2.587,2.587,0,0,0,400,503.1Zm-7.1,2.188c.047-.063.09-.117.127-.163s.066-.083.089-.113a2.753,2.753,0,0,0,.681-1.777,1.679,1.679,0,0,0-.7-1.3,1.74,1.74,0,0,0-1.33-.38,1.777,1.777,0,0,0-1.189.752,5.5,5.5,0,0,0-.5.855Z" transform="translate(-342.874 -500.504)" fill="#fff"/>
      </g>
    </g>
  </g>
</svg>
